REM DIRINDEX 1\5,1\2\6,1\2\7,1\3\8,1\3\9,1\3\10,1\3\11,1\4\12,1\4\13,1\4\14
REM DIRNAME folder01,folder02,folder03,folder04,folder05,folder06,folder07,folder08,folder09,folder10,folder11,folder12,folder13,folder14
TITLE ""
FILE "5Q_h_055-066.mp3" MP3
  TRACK 01 AUDIO
    TITLE "12:cjc043_0167"
    INDEX 01 00:00:00
  TRACK 02 AUDIO
    TITLE "0:"
    INDEX 01 00:02:06
  TRACK 03 AUDIO
    TITLE "13:cjc043_0168"
    INDEX 01 00:02:61
  TRACK 04 AUDIO
    TITLE "0:"
    INDEX 01 00:05:01
  TRACK 05 AUDIO
    TITLE "14:cjc043_0169"
    INDEX 01 00:05:56
  TRACK 06 AUDIO
    TITLE "0:"
    INDEX 01 00:07:74
  TRACK 07 AUDIO
    TITLE "12:cjc043_0170"
    INDEX 01 00:08:50
  TRACK 08 AUDIO
    TITLE "0:"
    INDEX 01 00:11:11
  TRACK 09 AUDIO
    TITLE "13:cjc043_0171"
    INDEX 01 00:11:66
  TRACK 10 AUDIO
    TITLE "0:"
    INDEX 01 00:14:27
  TRACK 11 AUDIO
    TITLE "14:cjc043_0172"
    INDEX 01 00:15:09
  TRACK 12 AUDIO
    TITLE "0:"
    INDEX 01 00:19:05
  TRACK 13 AUDIO
    TITLE "12:cjc043_0173"
    INDEX 01 00:19:58
  TRACK 14 AUDIO
    TITLE "0:"
    INDEX 01 00:22:68
  TRACK 15 AUDIO
    TITLE "13:cjc043_0174"
    INDEX 01 00:23:51
  TRACK 16 AUDIO
    TITLE "0:"
    INDEX 01 00:26:60
  TRACK 17 AUDIO
    TITLE "14:cjc043_0175"
    INDEX 01 00:27:41
  TRACK 18 AUDIO
    TITLE "0:"
    INDEX 01 00:30:38
  TRACK 19 AUDIO
    TITLE "12:cjc043_0176"
    INDEX 01 00:31:14
  TRACK 20 AUDIO
    TITLE "0:"
    INDEX 01 00:33:32
  TRACK 21 AUDIO
    TITLE "13:cjc043_0177"
    INDEX 01 00:34:08
  TRACK 22 AUDIO
    TITLE "0:"
    INDEX 01 00:36:27
  TRACK 23 AUDIO
    TITLE "14:cjc043_0178"
    INDEX 01 00:37:05
  TRACK 24 AUDIO
    TITLE "0:"
    INDEX 01 00:40:19
  TRACK 25 AUDIO
    TITLE "12:cjc043_0179"
    INDEX 01 00:40:73
  TRACK 26 AUDIO
    TITLE "0:"
    INDEX 01 00:43:07
  TRACK 27 AUDIO
    TITLE "13:cjc043_0180"
    INDEX 01 00:43:60
  TRACK 28 AUDIO
    TITLE "0:"
    INDEX 01 00:45:67
  TRACK 29 AUDIO
    TITLE "14:cjc043_0181"
    INDEX 01 00:46:43
  TRACK 30 AUDIO
    TITLE "0:"
    INDEX 01 00:49:12
  TRACK 31 AUDIO
    TITLE "12:cjc043_0182"
    INDEX 01 00:49:63
  TRACK 32 AUDIO
    TITLE "0:"
    INDEX 01 00:51:40
  TRACK 33 AUDIO
    TITLE "13:cjc043_0183"
    INDEX 01 00:52:16
  TRACK 34 AUDIO
    TITLE "0:"
    INDEX 01 00:53:70
  TRACK 35 AUDIO
    TITLE "14:cjc043_0184"
    INDEX 01 00:54:50
  TRACK 36 AUDIO
    TITLE "0:"
    INDEX 01 00:56:49
  TRACK 37 AUDIO
    TITLE "12:cjc043_0185"
    INDEX 01 00:57:25
  TRACK 38 AUDIO
    TITLE "0:"
    INDEX 01 00:59:73
  TRACK 39 AUDIO
    TITLE "13:cjc043_0186"
    INDEX 01 01:00:53
  TRACK 40 AUDIO
    TITLE "0:"
    INDEX 01 01:03:26
  TRACK 41 AUDIO
    TITLE "14:cjc043_0187"
    INDEX 01 01:04:03
  TRACK 42 AUDIO
    TITLE "0:"
    INDEX 01 01:06:63
  TRACK 43 AUDIO
    TITLE "12:cjc043_0188"
    INDEX 01 01:07:39
  TRACK 44 AUDIO
    TITLE "0:"
    INDEX 01 01:10:12
  TRACK 45 AUDIO
    TITLE "13:cjc043_0189"
    INDEX 01 01:10:61
  TRACK 46 AUDIO
    TITLE "0:"
    INDEX 01 01:13:32
  TRACK 47 AUDIO
    TITLE "14:cjc043_0190"
    INDEX 01 01:14:10
  TRACK 48 AUDIO
    TITLE "0:"
    INDEX 01 01:16:71
  TRACK 49 AUDIO
    TITLE "12:cjc043_0191"
    INDEX 01 01:17:47
  TRACK 50 AUDIO
    TITLE "0:"
    INDEX 01 01:19:23
  TRACK 51 AUDIO
    TITLE "13:cjc043_0192"
    INDEX 01 01:20:06
  TRACK 52 AUDIO
    TITLE "0:"
    INDEX 01 01:21:57
  TRACK 53 AUDIO
    TITLE "14:cjc043_0193"
    INDEX 01 01:22:37
  TRACK 54 AUDIO
    TITLE "0:"
    INDEX 01 01:24:41
  TRACK 55 AUDIO
    TITLE "12:cjc043_0194"
    INDEX 01 01:25:19
  TRACK 56 AUDIO
    TITLE "0:"
    INDEX 01 01:28:12
  TRACK 57 AUDIO
    TITLE "13:cjc043_0195"
    INDEX 01 01:28:69
  TRACK 58 AUDIO
    TITLE "0:"
    INDEX 01 01:31:65
  TRACK 59 AUDIO
    TITLE "14:cjc043_0196"
    INDEX 01 01:32:43
  TRACK 60 AUDIO
    TITLE "0:"
    INDEX 01 01:35:61
  TRACK 61 AUDIO
    TITLE "12:cjc043_0197"
    INDEX 01 01:36:37
  TRACK 62 AUDIO
    TITLE "0:"
    INDEX 01 01:38:28
  TRACK 63 AUDIO
    TITLE "13:cjc043_0198"
    INDEX 01 01:39:12
  TRACK 64 AUDIO
    TITLE "0:"
    INDEX 01 01:41:03
  TRACK 65 AUDIO
    TITLE "14:cjc043_0199"
    INDEX 01 01:41:59
  TRACK 66 AUDIO
    TITLE "0:"
    INDEX 01 01:44:28
  TRACK 67 AUDIO
    TITLE "12:cjc043_0200"
    INDEX 01 01:45:10
  TRACK 68 AUDIO
    TITLE "0:"
    INDEX 01 01:47:17
  TRACK 69 AUDIO
    TITLE "13:cjc043_0201"
    INDEX 01 01:47:70
  TRACK 70 AUDIO
    TITLE "0:"
    INDEX 01 01:50:00
  TRACK 71 AUDIO
    TITLE "14:cjc043_0202"
    INDEX 01 01:50:58
  TRACK 72 AUDIO
    TITLE "0:"
    INDEX 01 01:52:59
